<svg xmlns="http://www.w3.org/2000/svg" viewBox="0 0 750 500"><g id="freepik--background-complete--inject-22"><g><g><g><g><path d="M673.73,339.78h-180.75c-3.23,0-5.86-2.63-5.86-5.86V70.65c0-3.23,2.63-5.86,5.86-5.86h180.75c3.23,0,5.86,2.63,5.86,5.86V333.92c0,3.23-2.63,5.86-5.86,5.86ZM492.99,65.04c-3.09,0-5.61,2.52-5.61,5.61V333.92c0,3.09,2.52,5.61,5.61,5.61h180.75c3.09,0,5.61-2.52,5.61-5.61V70.65c0-3.09-2.52-5.61-5.61-5.61h-180.75Z" style="fill:#e0e0e0;"></path><path d="M465.31,339.78h-180.75c-3.23,0-5.86-2.63-5.86-5.86V70.65c0-3.23,2.63-5.86,5.86-5.86h180.75c3.23,0,5.86,2.63,5.86,5.86V333.92c0,3.23-2.63,5.86-5.86,5.86ZM284.56,65.04c-3.09,0-5.61,2.52-5.61,5.61V333.92c0,3.09,2.52,5.61,5.61,5.61h180.75c3.09,0,5.61-2.52,5.61-5.61V70.65c0-3.09-2.52-5.61-5.61-5.61h-180.75Z" style="fill:#e0e0e0;"></path></g><path d="M257.01,339.78H76.27c-3.23,0-5.86-2.63-5.86-5.86V70.65c0-3.23,2.63-5.86,5.86-5.86h180.75c3.23,0,5.86,2.63,5.86,5.86V333.92c0,3.23-2.63,5.86-5.86,5.86ZM76.27,65.04c-3.09,0-5.61,2.52-5.61,5.61V333.92c0,3.09,2.52,5.61,5.61,5.61h180.75c3.09,0,5.61-2.52,5.61-5.61V70.65c0-3.09-2.52-5.61-5.61-5.61H76.27Z" style="fill:#e0e0e0;"></path></g><rect y="400.85" width="750" height=".12" style="fill:#e0e0e0;"></rect></g><g><rect x="653.63" y="430.23" width="55.73" height=".42" style="fill:#ebebeb;"></rect><rect x="495.04" y="434.79" width="14.63" height=".42" style="fill:#ebebeb;"></rect><rect x="40.64" y="417.43" width="72.67" height=".42" style="fill:#ebebeb;"></rect><rect x="128.3" y="417.43" width="10.66" height=".42" style="fill:#ebebeb;"></rect><rect x="173.59" y="424.54" width="157.61" height=".42" style="fill:#ebebeb;"></rect></g></g><path d="M415.17,68.2c-1.32-1-3.25-1.11-4.68-.27-1.9-3.83-7.18-5.52-10.95-3.5-.98-4.13-5.05-7.3-9.29-7.25-4.24,.05-8.23,3.32-9.12,7.47-.14,.66-.23,1.38-.7,1.86-.77,.78-2.05,.52-3.14,.43-3.44-.27-6.89,2.14-7.83,5.46l47.32-.17c.41-1.6-.3-3.03-1.62-4.03Z" style="fill:#e0e0e0;"></path><path d="M553.73,121.3c-1.32-1-3.25-1.11-4.68-.27-1.9-3.83-7.18-5.52-10.95-3.5-.98-4.13-5.05-7.3-9.29-7.25-4.24,.05-8.23,3.32-9.12,7.47-.14,.66-.23,1.38-.7,1.86-.77,.78-2.05,.52-3.14,.43-3.44-.27-6.89,2.14-7.83,5.46l47.32-.17c.41-1.6-.3-3.03-1.62-4.03Z" style="fill:#f0f0f0;"></path><path d="M536.16,48.93c-2.17-1.64-5.35-1.83-7.7-.45-3.12-6.31-11.82-9.09-18.02-5.77-1.62-6.8-8.31-12.02-15.3-11.93-6.98,.08-13.55,5.47-15.01,12.3-.23,1.09-.38,2.28-1.16,3.07-1.26,1.29-3.37,.86-5.17,.72-5.66-.44-11.35,3.53-12.89,8.99l77.9-.28c.68-2.64-.49-5-2.67-6.64Z" style="fill:#f5f5f5;"></path><path d="M699.45,78.98c-1.62-1.22-3.99-1.36-5.74-.34-2.33-4.7-8.81-6.78-13.43-4.3-1.21-5.07-6.2-8.96-11.4-8.9-5.21,.06-10.1,4.08-11.19,9.17-.17,.81-.29,1.7-.87,2.29-.94,.96-2.51,.64-3.85,.53-4.22-.33-8.46,2.63-9.61,6.7l58.07-.21c.51-1.97-.37-3.72-1.99-4.95Z" style="fill:#f5f5f5;"></path><path d="M265.44,63.45c-2.41-1.82-5.93-2.03-8.54-.5-3.46-6.99-13.1-10.08-19.98-6.39-1.79-7.54-9.22-13.33-16.96-13.23-7.75,.09-15.03,6.06-16.64,13.64-.26,1.2-.43,2.52-1.29,3.4-1.4,1.43-3.73,.95-5.73,.79-6.27-.49-12.58,3.91-14.29,9.97l86.38-.31c.76-2.92-.55-5.54-2.96-7.36Z" style="fill:#f5f5f5;"></path><path d="M221.91,128.92c-1.32-1-3.25-1.11-4.68-.27-1.9-3.83-7.18-5.52-10.94-3.5-.98-4.13-5.05-7.3-9.29-7.25-4.24,.05-8.23,3.32-9.12,7.47-.14,.66-.23,1.38-.7,1.86-.77,.78-2.05,.52-3.14,.43-3.44-.27-6.89,2.14-7.83,5.46l47.32-.17c.41-1.6-.3-3.04-1.62-4.03Z" style="fill:#f0f0f0;"></path><path d="M108.48,110.18c-1.96-1.48-4.82-1.65-6.94-.41-2.81-5.69-10.66-8.2-16.25-5.2-1.46-6.13-7.5-10.84-13.8-10.76s-12.22,4.93-13.54,11.09c-.21,.98-.35,2.05-1.05,2.77-1.14,1.16-3.04,.77-4.66,.65-5.1-.4-10.24,3.18-11.62,8.11l70.27-.26c.62-2.38-.44-4.51-2.4-5.99Z" style="fill:#f0f0f0;"></path><g id="freepik--freepik--background-complete--inject-481--inject-22"><g><polygon points="538.84 229.03 538.84 187.2 512.94 187.2 512.94 196.74 495.67 196.74 495.67 92.24 462.48 92.24 462.48 133.37 452.52 133.37 452.52 112.83 426.62 112.83 426.62 212.99 390.1 212.99 390.1 177.61 367.2 177.61 367.2 100.88 338.93 100.88 338.93 152.03 312.37 152.03 312.37 262.23 291.79 262.23 291.79 208.57 270.54 208.57 270.54 174.04 247.97 174.04 247.97 147.53 222.78 160.81 222.78 231.74 196.22 231.74 196.22 217.11 160.73 217.11 160.73 348.83 573.74 349.03 573.74 229.03 538.84 229.03" style="fill:#f0f0f0;"></polygon><rect x="345.4" y="109.94" width="8.27" height="9.48" style="fill:#fafafa;"></rect><rect x="345.4" y="125.82" width="8.27" height="9.48" style="fill:#fafafa;"></rect><rect x="345.4" y="141.72" width="8.27" height="9.48" style="fill:#fafafa;"></rect><rect x="345.4" y="157.61" width="8.27" height="9.48" style="fill:#fafafa;"></rect><rect x="345.4" y="173.5" width="8.27" height="9.48" style="fill:#fafafa;"></rect><rect x="345.4" y="189.4" width="8.27" height="9.48" style="fill:#fafafa;"></rect><rect x="345.4" y="205.29" width="8.27" height="9.48" style="fill:#fafafa;"></rect><rect x="345.4" y="221.19" width="8.27" height="9.48" style="fill:#fafafa;"></rect><rect x="469.63" y="97.25" width="8.27" height="9.48" style="fill:#fafafa;"></rect><rect x="469.63" y="113.14" width="8.27" height="9.48" style="fill:#fafafa;"></rect><rect x="469.63" y="129.04" width="8.27" height="9.48" style="fill:#fafafa;"></rect><rect x="469.63" y="144.93" width="8.27" height="9.48" style="fill:#fafafa;"></rect><rect x="469.63" y="160.82" width="8.27" height="9.48" style="fill:#fafafa;"></rect><rect x="469.63" y="176.71" width="8.27" height="9.48" style="fill:#fafafa;"></rect><rect x="469.63" y="192.61" width="8.27" height="9.48" style="fill:#fafafa;"></rect><rect x="469.63" y="208.5" width="8.27" height="9.48" style="fill:#fafafa;"></rect></g><g><path d="M317.14,348.91V196.5h-32.9v152.4l32.9,.02Z" style="fill:#e0e0e0;"></path><rect x="286.73" y="201.33" width="3.99" height="8.23" style="fill:#fafafa;"></rect><rect x="294.71" y="201.33" width="3.99" height="8.23" style="fill:#fafafa;"></rect><rect x="302.69" y="201.33" width="3.99" height="8.23" style="fill:#fafafa;"></rect><rect x="310.66" y="201.33" width="3.99" height="8.23" style="fill:#fafafa;"></rect><rect x="286.73" y="215.14" width="3.99" height="8.23" style="fill:#fafafa;"></rect><rect x="294.71" y="215.14" width="3.99" height="8.23" style="fill:#fafafa;"></rect><rect x="302.69" y="215.14" width="3.99" height="8.23" style="fill:#fafafa;"></rect><rect x="310.66" y="215.14" width="3.99" height="8.23" style="fill:#fafafa;"></rect><rect x="286.73" y="228.93" width="3.99" height="8.23" style="fill:#fafafa;"></rect><rect x="294.71" y="228.93" width="3.99" height="8.23" style="fill:#fafafa;"></rect><rect x="302.69" y="228.93" width="3.99" height="8.23" style="fill:#fafafa;"></rect><rect x="310.66" y="228.93" width="3.99" height="8.23" style="fill:#fafafa;"></rect><rect x="286.73" y="242.72" width="3.99" height="8.23" style="fill:#fafafa;"></rect><rect x="294.71" y="242.72" width="3.99" height="8.23" style="fill:#fafafa;"></rect><rect x="302.69" y="242.72" width="3.99" height="8.23" style="fill:#fafafa;"></rect><rect x="310.66" y="242.72" width="3.99" height="8.23" style="fill:#fafafa;"></rect><rect x="286.73" y="256.51" width="3.99" height="8.23" style="fill:#fafafa;"></rect><rect x="294.71" y="256.51" width="3.99" height="8.23" style="fill:#fafafa;"></rect><rect x="302.69" y="256.51" width="3.99" height="8.23" style="fill:#fafafa;"></rect><rect x="310.66" y="256.51" width="3.99" height="8.23" style="fill:#fafafa;"></rect><rect x="286.73" y="270.3" width="3.99" height="8.23" style="fill:#fafafa;"></rect><rect x="294.71" y="270.3" width="3.99" height="8.23" style="fill:#fafafa;"></rect><rect x="302.69" y="270.3" width="3.99" height="8.23" style="fill:#fafafa;"></rect><rect x="310.66" y="270.3" width="3.99" height="8.23" style="fill:#fafafa;"></rect><rect x="286.73" y="284.09" width="3.99" height="8.23" style="fill:#fafafa;"></rect><rect x="294.71" y="284.09" width="3.99" height="8.23" style="fill:#fafafa;"></rect><rect x="302.69" y="284.09" width="3.99" height="8.23" style="fill:#fafafa;"></rect><rect x="310.66" y="284.09" width="3.99" height="8.23" style="fill:#fafafa;"></rect><rect x="286.73" y="297.89" width="3.99" height="8.23" style="fill:#fafafa;"></rect><rect x="294.71" y="297.89" width="3.99" height="8.23" style="fill:#fafafa;"></rect><rect x="302.69" y="297.89" width="3.99" height="8.23" style="fill:#fafafa;"></rect><rect x="310.66" y="297.89" width="3.99" height="8.23" style="fill:#fafafa;"></rect></g><g><path d="M431.47,348.96V178.91h-68.22v170.1s67.69,.02,68.22-.05Z" style="fill:#e6e6e6;"></path><rect x="368.37" y="184.53" width="8.27" height="9.48" style="fill:#e0e0e0;"></rect><rect x="384.92" y="184.53" width="8.27" height="9.48" style="fill:#e0e0e0;"></rect><rect x="401.46" y="184.53" width="8.27" height="9.48" style="fill:#e0e0e0;"></rect><rect x="418.01" y="184.53" width="8.27" height="9.48" style="fill:#e0e0e0;"></rect><rect x="368.37" y="200.43" width="8.27" height="9.48" style="fill:#e0e0e0;"></rect><rect x="384.92" y="200.43" width="8.27" height="9.48" style="fill:#e0e0e0;"></rect><rect x="401.46" y="200.43" width="8.27" height="9.48" style="fill:#e0e0e0;"></rect><rect x="418.01" y="200.43" width="8.27" height="9.48" style="fill:#e0e0e0;"></rect><rect x="368.37" y="216.32" width="8.27" height="9.48" style="fill:#e0e0e0;"></rect><rect x="384.92" y="216.32" width="8.27" height="9.48" style="fill:#e0e0e0;"></rect><rect x="401.46" y="216.32" width="8.27" height="9.48" style="fill:#e0e0e0;"></rect><rect x="418.01" y="216.32" width="8.27" height="9.48" style="fill:#e0e0e0;"></rect><rect x="368.37" y="232.21" width="8.27" height="9.48" style="fill:#e0e0e0;"></rect><rect x="384.92" y="232.21" width="8.27" height="9.48" style="fill:#e0e0e0;"></rect><rect x="401.46" y="232.21" width="8.27" height="9.48" style="fill:#e0e0e0;"></rect><rect x="418.01" y="232.21" width="8.27" height="9.48" style="fill:#e0e0e0;"></rect><rect x="368.37" y="248.11" width="8.27" height="9.48" style="fill:#e0e0e0;"></rect><rect x="384.92" y="248.11" width="8.27" height="9.48" style="fill:#e0e0e0;"></rect><rect x="401.46" y="248.11" width="8.27" height="9.48" style="fill:#e0e0e0;"></rect><rect x="418.01" y="248.11" width="8.27" height="9.48" style="fill:#e0e0e0;"></rect><rect x="368.37" y="264" width="8.27" height="9.48" style="fill:#e0e0e0;"></rect><rect x="384.92" y="264" width="8.27" height="9.48" style="fill:#e0e0e0;"></rect><rect x="401.46" y="264" width="8.27" height="9.48" style="fill:#e0e0e0;"></rect><rect x="418.01" y="264" width="8.27" height="9.48" style="fill:#e0e0e0;"></rect><rect x="368.37" y="279.9" width="8.27" height="9.48" style="fill:#e0e0e0;"></rect><rect x="384.92" y="279.9" width="8.27" height="9.48" style="fill:#e0e0e0;"></rect><rect x="401.46" y="279.9" width="8.27" height="9.48" style="fill:#e0e0e0;"></rect><rect x="418.01" y="279.9" width="8.27" height="9.48" style="fill:#e0e0e0;"></rect><rect x="368.37" y="295.79" width="8.27" height="9.48" style="fill:#e0e0e0;"></rect><rect x="384.92" y="295.79" width="8.27" height="9.48" style="fill:#e0e0e0;"></rect><rect x="401.46" y="295.79" width="8.27" height="9.48" style="fill:#e0e0e0;"></rect><rect x="418.01" y="295.79" width="8.27" height="9.48" style="fill:#e0e0e0;"></rect></g><g><path d="M272.27,348.89V167.02h-28.22v182.01c8.93-.22,28.22-.15,28.22-.15Z" style="fill:#e6e6e6;"></path><rect x="248.23" y="170.39" width="8.27" height="9.48" style="fill:#fafafa;"></rect><rect x="248.23" y="186.27" width="8.27" height="9.48" style="fill:#fafafa;"></rect><rect x="248.23" y="202.17" width="8.27" height="9.48" style="fill:#fafafa;"></rect><rect x="248.23" y="218.06" width="8.27" height="9.48" style="fill:#fafafa;"></rect><rect x="248.23" y="233.95" width="8.27" height="9.48" style="fill:#fafafa;"></rect><rect x="248.23" y="249.85" width="8.27" height="9.48" style="fill:#fafafa;"></rect><rect x="248.23" y="265.74" width="8.27" height="9.48" style="fill:#fafafa;"></rect><rect x="248.23" y="281.64" width="8.27" height="9.48" style="fill:#fafafa;"></rect><rect x="259.29" y="170.39" width="8.27" height="9.48" style="fill:#fafafa;"></rect><rect x="259.29" y="186.27" width="8.27" height="9.48" style="fill:#fafafa;"></rect><rect x="259.29" y="202.17" width="8.27" height="9.48" style="fill:#fafafa;"></rect><rect x="259.29" y="218.06" width="8.27" height="9.48" style="fill:#fafafa;"></rect><rect x="259.29" y="233.95" width="8.27" height="9.48" style="fill:#fafafa;"></rect><rect x="259.29" y="249.85" width="8.27" height="9.48" style="fill:#fafafa;"></rect><rect x="259.29" y="265.74" width="8.27" height="9.48" style="fill:#fafafa;"></rect><rect x="259.29" y="281.64" width="8.27" height="9.48" style="fill:#fafafa;"></rect></g><g><rect x="492.77" y="170.26" width="49.81" height="178.77" style="fill:#e6e6e6;"></rect><rect x="500.13" y="177.65" width="14.6" height="9.48" style="fill:#fafafa;"></rect><rect x="500.13" y="193.55" width="14.6" height="9.48" style="fill:#fafafa;"></rect><rect x="500.13" y="209.44" width="14.6" height="9.48" style="fill:#fafafa;"></rect><rect x="500.13" y="225.34" width="14.6" height="9.48" style="fill:#fafafa;"></rect><rect x="500.13" y="241.23" width="14.6" height="9.48" style="fill:#fafafa;"></rect><rect x="500.13" y="257.11" width="14.6" height="9.48" style="fill:#fafafa;"></rect><rect x="500.13" y="273.01" width="14.6" height="9.48" style="fill:#fafafa;"></rect><rect x="500.13" y="288.9" width="14.6" height="9.48" style="fill:#fafafa;"></rect><rect x="519.66" y="177.65" width="14.6" height="9.48" style="fill:#fafafa;"></rect><rect x="519.66" y="193.55" width="14.6" height="9.48" style="fill:#fafafa;"></rect><rect x="519.66" y="209.44" width="14.6" height="9.48" style="fill:#fafafa;"></rect><rect x="519.66" y="225.34" width="14.6" height="9.48" style="fill:#fafafa;"></rect><rect x="519.66" y="241.23" width="14.6" height="9.48" style="fill:#fafafa;"></rect><rect x="519.66" y="257.11" width="14.6" height="9.48" style="fill:#fafafa;"></rect><rect x="519.66" y="273.01" width="14.6" height="9.48" style="fill:#fafafa;"></rect><rect x="519.66" y="288.9" width="14.6" height="9.48" style="fill:#fafafa;"></rect></g><g><rect x="584.5" y="110.57" width="66.65" height="239.23" style="fill:#e6e6e6;"></rect><rect x="594.82" y="120.46" width="13.41" height="8.7" style="fill:#fafafa;"></rect><rect x="594.82" y="135.06" width="13.41" height="8.7" style="fill:#fafafa;"></rect><rect x="594.82" y="149.66" width="13.41" height="8.7" style="fill:#fafafa;"></rect><rect x="594.82" y="164.26" width="13.41" height="8.7" style="fill:#fafafa;"></rect><rect x="594.82" y="178.85" width="13.41" height="8.7" style="fill:#fafafa;"></rect><rect x="594.82" y="193.45" width="13.41" height="8.7" style="fill:#fafafa;"></rect><rect x="594.82" y="208.05" width="13.41" height="8.7" style="fill:#fafafa;"></rect><rect x="594.82" y="222.64" width="13.41" height="8.7" style="fill:#fafafa;"></rect><rect x="612.76" y="120.46" width="13.41" height="8.7" style="fill:#fafafa;"></rect><rect x="612.76" y="135.06" width="13.41" height="8.7" style="fill:#fafafa;"></rect><rect x="612.76" y="149.66" width="13.41" height="8.7" style="fill:#fafafa;"></rect><rect x="612.76" y="164.26" width="13.41" height="8.7" style="fill:#fafafa;"></rect><rect x="612.76" y="178.85" width="13.41" height="8.7" style="fill:#fafafa;"></rect><rect x="612.76" y="193.45" width="13.41" height="8.7" style="fill:#fafafa;"></rect><rect x="612.76" y="208.05" width="13.41" height="8.7" style="fill:#fafafa;"></rect><rect x="612.76" y="222.64" width="13.41" height="8.7" style="fill:#fafafa;"></rect><rect x="629.95" y="120.46" width="13.41" height="8.7" style="fill:#fafafa;"></rect><rect x="629.95" y="135.06" width="13.41" height="8.7" style="fill:#fafafa;"></rect><rect x="629.95" y="149.66" width="13.41" height="8.7" style="fill:#fafafa;"></rect><rect x="629.95" y="164.26" width="13.41" height="8.7" style="fill:#fafafa;"></rect><rect x="629.95" y="178.85" width="13.41" height="8.7" style="fill:#fafafa;"></rect><rect x="629.95" y="193.45" width="13.41" height="8.7" style="fill:#fafafa;"></rect><rect x="629.95" y="208.05" width="13.41" height="8.7" style="fill:#fafafa;"></rect><rect x="629.95" y="222.64" width="13.41" height="8.7" style="fill:#fafafa;"></rect><rect x="594.82" y="234.99" width="13.41" height="8.7" style="fill:#fafafa;"></rect><rect x="594.82" y="249.59" width="13.41" height="8.7" style="fill:#fafafa;"></rect><rect x="594.82" y="264.19" width="13.41" height="8.7" style="fill:#fafafa;"></rect><rect x="594.82" y="278.79" width="13.41" height="8.7" style="fill:#fafafa;"></rect><rect x="594.82" y="293.38" width="13.41" height="8.7" style="fill:#fafafa;"></rect><rect x="594.82" y="307.98" width="13.41" height="8.7" style="fill:#fafafa;"></rect><rect x="594.82" y="322.58" width="13.41" height="8.7" style="fill:#fafafa;"></rect><rect x="594.82" y="337.17" width="13.41" height="8.7" style="fill:#fafafa;"></rect><rect x="612.76" y="234.99" width="13.41" height="8.7" style="fill:#fafafa;"></rect><rect x="612.76" y="249.59" width="13.41" height="8.7" style="fill:#fafafa;"></rect><rect x="612.76" y="264.19" width="13.41" height="8.7" style="fill:#fafafa;"></rect><rect x="612.76" y="278.79" width="13.41" height="8.7" style="fill:#fafafa;"></rect><rect x="612.76" y="293.38" width="13.41" height="8.7" style="fill:#fafafa;"></rect><rect x="612.76" y="307.98" width="13.41" height="8.7" style="fill:#fafafa;"></rect><rect x="612.76" y="322.58" width="13.41" height="8.7" style="fill:#fafafa;"></rect><rect x="612.76" y="337.17" width="13.41" height="8.7" style="fill:#fafafa;"></rect><rect x="629.95" y="234.99" width="13.41" height="8.7" style="fill:#fafafa;"></rect><rect x="629.95" y="249.59" width="13.41" height="8.7" style="fill:#fafafa;"></rect><rect x="629.95" y="264.19" width="13.41" height="8.7" style="fill:#fafafa;"></rect><rect x="629.95" y="278.79" width="13.41" height="8.7" style="fill:#fafafa;"></rect><rect x="629.95" y="293.38" width="13.41" height="8.7" style="fill:#fafafa;"></rect><rect x="629.95" y="307.98" width="13.41" height="8.7" style="fill:#fafafa;"></rect><rect x="629.95" y="322.58" width="13.41" height="8.7" style="fill:#fafafa;"></rect><rect x="629.95" y="337.17" width="13.41" height="8.7" style="fill:#fafafa;"></rect></g><g><rect x="97.17" y="157.26" width="53.14" height="190.74" style="fill:#e6e6e6;"></rect><rect x="105.03" y="165.14" width="15.58" height="10.11" style="fill:#fafafa;"></rect><rect x="105.03" y="182.11" width="15.58" height="10.11" style="fill:#fafafa;"></rect><rect x="105.03" y="199.06" width="15.58" height="10.11" style="fill:#fafafa;"></rect><rect x="105.03" y="216.02" width="15.58" height="10.11" style="fill:#fafafa;"></rect><rect x="105.03" y="232.97" width="15.58" height="10.11" style="fill:#fafafa;"></rect><rect x="105.03" y="249.93" width="15.58" height="10.11" style="fill:#fafafa;"></rect><rect x="105.03" y="266.89" width="15.58" height="10.11" style="fill:#fafafa;"></rect><rect x="105.03" y="283.84" width="15.58" height="10.11" style="fill:#fafafa;"></rect><rect x="125.87" y="165.14" width="15.58" height="10.11" style="fill:#fafafa;"></rect><rect x="125.87" y="182.11" width="15.58" height="10.11" style="fill:#fafafa;"></rect><rect x="125.87" y="199.06" width="15.58" height="10.11" style="fill:#fafafa;"></rect><rect x="125.87" y="216.02" width="15.58" height="10.11" style="fill:#fafafa;"></rect><rect x="125.87" y="232.97" width="15.58" height="10.11" style="fill:#fafafa;"></rect><rect x="125.87" y="249.93" width="15.58" height="10.11" style="fill:#fafafa;"></rect><rect x="125.87" y="266.89" width="15.58" height="10.11" style="fill:#fafafa;"></rect><rect x="125.87" y="283.84" width="15.58" height="10.11" style="fill:#fafafa;"></rect></g><g><path d="M460.18,348.98V216.32h-21.72v132.64h21.72Z" style="fill:#e0e0e0;"></path><rect x="440.1" y="220.52" width="2.63" height="7.06" style="fill:#fafafa;"></rect><rect x="445.37" y="220.52" width="2.63" height="7.06" style="fill:#fafafa;"></rect><rect x="450.63" y="220.52" width="2.63" height="7.06" style="fill:#fafafa;"></rect><rect x="455.9" y="220.52" width="2.63" height="7.06" style="fill:#fafafa;"></rect><rect x="440.1" y="232.37" width="2.63" height="7.06" style="fill:#fafafa;"></rect><rect x="445.37" y="232.37" width="2.63" height="7.06" style="fill:#fafafa;"></rect><rect x="450.63" y="232.37" width="2.63" height="7.06" style="fill:#fafafa;"></rect><rect x="455.9" y="232.37" width="2.63" height="7.06" style="fill:#fafafa;"></rect><rect x="440.1" y="244.22" width="2.63" height="7.06" style="fill:#fafafa;"></rect><rect x="445.37" y="244.22" width="2.63" height="7.06" style="fill:#fafafa;"></rect><rect x="450.63" y="244.22" width="2.63" height="7.06" style="fill:#fafafa;"></rect><rect x="455.9" y="244.22" width="2.63" height="7.06" style="fill:#fafafa;"></rect><rect x="440.1" y="256.06" width="2.63" height="7.06" style="fill:#fafafa;"></rect><rect x="445.37" y="256.06" width="2.63" height="7.06" style="fill:#fafafa;"></rect><rect x="450.63" y="256.06" width="2.63" height="7.06" style="fill:#fafafa;"></rect><rect x="455.9" y="256.06" width="2.63" height="7.06" style="fill:#fafafa;"></rect><rect x="440.1" y="267.92" width="2.63" height="7.06" style="fill:#fafafa;"></rect><rect x="445.37" y="267.92" width="2.63" height="7.06" style="fill:#fafafa;"></rect><rect x="450.63" y="267.92" width="2.63" height="7.06" style="fill:#fafafa;"></rect><rect x="455.9" y="267.92" width="2.63" height="7.06" style="fill:#fafafa;"></rect><rect x="440.1" y="279.77" width="2.63" height="7.06" style="fill:#fafafa;"></rect><rect x="445.37" y="279.77" width="2.63" height="7.06" style="fill:#fafafa;"></rect><rect x="450.63" y="279.77" width="2.63" height="7.06" style="fill:#fafafa;"></rect><rect x="455.9" y="279.77" width="2.63" height="7.06" style="fill:#fafafa;"></rect><rect x="440.1" y="291.62" width="2.63" height="7.06" style="fill:#fafafa;"></rect><rect x="445.37" y="291.62" width="2.63" height="7.06" style="fill:#fafafa;"></rect><rect x="450.63" y="291.62" width="2.63" height="7.06" style="fill:#fafafa;"></rect><rect x="455.9" y="291.62" width="2.63" height="7.06" style="fill:#fafafa;"></rect><rect x="440.1" y="303.47" width="2.63" height="7.06" style="fill:#fafafa;"></rect><rect x="445.37" y="303.47" width="2.63" height="7.06" style="fill:#fafafa;"></rect><rect x="450.63" y="303.47" width="2.63" height="7.06" style="fill:#fafafa;"></rect><rect x="455.9" y="303.47" width="2.63" height="7.06" style="fill:#fafafa;"></rect></g><g><path d="M246.57,349.03v-113.04h-58.08v112.86l58.08,.19Z" style="fill:#fafafa;"></path><rect x="192.89" y="239.5" width="7.04" height="5.93" style="fill:#e0e0e0;"></rect><rect x="206.97" y="239.5" width="7.04" height="5.93" style="fill:#e0e0e0;"></rect><rect x="221.05" y="239.5" width="7.04" height="5.93" style="fill:#e0e0e0;"></rect><rect x="235.13" y="239.5" width="7.04" height="5.93" style="fill:#e0e0e0;"></rect><rect x="192.89" y="249.44" width="7.04" height="5.93" style="fill:#e0e0e0;"></rect><rect x="206.97" y="249.44" width="7.04" height="5.93" style="fill:#e0e0e0;"></rect><rect x="221.05" y="249.44" width="7.04" height="5.93" style="fill:#e0e0e0;"></rect><rect x="235.13" y="249.44" width="7.04" height="5.93" style="fill:#e0e0e0;"></rect><rect x="192.89" y="259.38" width="7.04" height="5.93" style="fill:#e0e0e0;"></rect><rect x="206.97" y="259.38" width="7.04" height="5.93" style="fill:#e0e0e0;"></rect><rect x="221.05" y="259.38" width="7.04" height="5.93" style="fill:#e0e0e0;"></rect><rect x="235.13" y="259.38" width="7.04" height="5.93" style="fill:#e0e0e0;"></rect><rect x="192.89" y="269.32" width="7.04" height="5.93" style="fill:#e0e0e0;"></rect><rect x="206.97" y="269.32" width="7.04" height="5.93" style="fill:#e0e0e0;"></rect><rect x="221.05" y="269.32" width="7.04" height="5.93" style="fill:#e0e0e0;"></rect><rect x="235.13" y="269.32" width="7.04" height="5.93" style="fill:#e0e0e0;"></rect><rect x="192.89" y="279.25" width="7.04" height="5.93" style="fill:#e0e0e0;"></rect><rect x="206.97" y="279.25" width="7.04" height="5.93" style="fill:#e0e0e0;"></rect><rect x="221.05" y="279.25" width="7.04" height="5.93" style="fill:#e0e0e0;"></rect><rect x="235.13" y="279.25" width="7.04" height="5.93" style="fill:#e0e0e0;"></rect><rect x="192.89" y="289.19" width="7.04" height="5.93" style="fill:#e0e0e0;"></rect><rect x="206.97" y="289.19" width="7.04" height="5.93" style="fill:#e0e0e0;"></rect><rect x="221.05" y="289.19" width="7.04" height="5.93" style="fill:#e0e0e0;"></rect><rect x="235.13" y="289.19" width="7.04" height="5.93" style="fill:#e0e0e0;"></rect><rect x="192.89" y="299.12" width="7.04" height="5.93" style="fill:#e0e0e0;"></rect><rect x="206.97" y="299.12" width="7.04" height="5.93" style="fill:#e0e0e0;"></rect><rect x="221.05" y="299.12" width="7.04" height="5.93" style="fill:#e0e0e0;"></rect><rect x="235.13" y="299.12" width="7.04" height="5.93" style="fill:#e0e0e0;"></rect></g></g></g><g id="freepik--Shadow--inject-22"><path d="M620.63,472.81c0,3.39-109.97,6.13-245.63,6.13s-245.63-2.75-245.63-6.13,109.97-6.13,245.63-6.13,245.63,2.75,245.63,6.13Z" style="fill:#f5f5f5;"></path></g><g id="freepik--Bridge--inject-22"><g><rect x="420.67" y="104.51" width="9.54" height="6.98" transform="translate(850.87 216.01) rotate(180)" style="fill:#7951C1;"></rect><rect x="420.67" y="104.51" width="9.54" height="6.98" transform="translate(850.87 216.01) rotate(180)" style="opacity:.3;"></rect><path d="M423.35,341.5c-3.05-9.38-2.16-236.98-2.16-236.98l-87.02,.6-1.39,236.38,20.74-.38s-3.52-115.51-3.13-123.97c.39-8.46-.68-80.95-.68-80.95,0,0,12.16-7.69,28.31-7.2,16.15,.49,24.81,5.84,24.81,5.84l-2.9,206.48,23.41,.18Z" style="fill:#7951C1;"></path><path d="M423.35,341.5c-3.05-9.38-2.16-236.98-2.16-236.98l-87.02,.6-1.39,236.38,20.74-.38s-3.52-115.51-3.13-123.97c.39-8.46-.68-80.95-.68-80.95,0,0,12.16-7.69,28.31-7.2,16.15,.49,24.81,5.84,24.81,5.84l-2.9,206.48,23.41,.18Z" style="opacity:.3;"></path><g><rect x="341.54" y="93.18" width="9.54" height="11.94" style="fill:#263238;"></rect><path d="M13.18,246.55c34.18-3.74,68.23-8.88,101.91-15.84,25.54-5.27,50.88-11.58,75.81-19.25,17-5.22,33.82-11.07,50.3-17.79,5.41-2.2,10.78-4.5,16.09-6.91,11.58-5.25,23.16-10.67,34.15-17.08,7.26-4.23,14.25-8.96,20.61-14.46,5.04-4.35,9.23-9.51,13-14.98,6.73-9.76,12.66-20.54,16.76-31.69,.46-1.25,.93-2.54,1.17-3.85,.17-.94-1.28-1.35-1.45-.4-.65,3.6-2.42,7.16-3.92,10.46-2.6,5.74-5.53,11.33-8.75,16.74-3.45,5.8-7.24,11.45-11.69,16.54-5.11,5.83-11.36,10.6-17.77,14.91-12.64,8.48-26.51,14.99-40.3,21.35-4.87,2.24-9.78,4.39-14.72,6.46-15.53,6.47-31.38,12.14-47.41,17.24-23.56,7.49-47.52,13.73-71.67,19.01-32.45,7.1-65.27,12.46-98.24,16.44-4.62,.56-9.25,1.09-13.88,1.6-.95,.1-.96,1.61,0,1.5h0Z" style="fill:#263238;"></path><rect x="224.81" y="209.27" width="1" height="141.97" style="fill:#263238;"></rect><rect x="227.69" y="209.27" width="1" height="141.97" style="fill:#263238;"></rect><rect x="256.59" y="196.34" width="1" height="145.67" style="fill:#263238;"></rect><rect x="259.47" y="196.34" width="1" height="145.67" style="fill:#263238;"></rect><rect x="279.82" y="184.36" width="1" height="159.12" style="fill:#263238;"></rect><rect x="282.71" y="184.36" width="1" height="159.12" style="fill:#263238;"></rect><rect x="296.95" y="174.08" width="1" height="169.4" style="fill:#263238;"></rect><rect x="299.83" y="174.08" width="1" height="169.4" style="fill:#263238;"></rect><g><rect x="309.42" y="164.3" width="1" height="179.18" style="fill:#263238;"></rect><rect x="311.42" y="164.3" width="1" height="179.18" style="fill:#263238;"></rect></g><g><rect x="317.96" y="156.1" width="1" height="185.39" style="fill:#263238;"></rect><rect x="319.95" y="156.1" width="1" height="185.39" style="fill:#263238;"></rect></g><rect x="224.13" y="208.6" width="4.99" height="1.34" style="fill:#263238;"></rect><path d="M228.9,209.77h-4.46l-2.91-9.79,.96-.29,2.7,9.08h2.91c.4-1.77,2.03-9.07,2.37-11.1l.99,.17c-.39,2.33-2.39,11.17-2.47,11.55l-.09,.39Z" style="fill:#263238;"></path><g><rect x="189.12" y="221.46" width="1" height="135.43" style="fill:#263238;"></rect><rect x="192.01" y="221.46" width="1" height="135.43" style="fill:#263238;"></rect><rect x="188.44" y="220.79" width="4.99" height="1.34" style="fill:#263238;"></rect><path d="M193.22,221.96h-4.46l-2.91-9.79,.96-.29,2.7,9.08h2.91c.4-1.77,2.03-9.07,2.37-11.1l.99,.17c-.39,2.33-2.39,11.17-2.47,11.55l-.09,.39Z" style="fill:#263238;"></path></g><g><rect x="158.65" y="230.13" width="1" height="135.43" style="fill:#263238;"></rect><rect x="161.53" y="230.13" width="1" height="135.43" style="fill:#263238;"></rect><rect x="157.97" y="229.46" width="4.99" height="1.34" style="fill:#263238;"></rect><path d="M162.74,230.63h-4.46l-2.91-9.79,.96-.29,2.7,9.08h2.91c.4-1.77,2.03-9.07,2.37-11.1l.99,.17c-.39,2.33-2.39,11.17-2.47,11.55l-.09,.39Z" style="fill:#263238;"></path></g><g><rect x="106.75" y="241.65" width="1" height="135.43" style="fill:#263238;"></rect><rect x="109.63" y="241.65" width="1" height="135.43" style="fill:#263238;"></rect><rect x="106.07" y="240.98" width="4.99" height="1.34" style="fill:#263238;"></rect><path d="M110.84,242.15h-4.46l-2.91-9.79,.96-.29,2.7,9.08h2.91c.4-1.77,2.03-9.07,2.37-11.1l.99,.17c-.39,2.33-2.39,11.17-2.47,11.55l-.09,.39Z" style="fill:#263238;"></path></g><g><rect x="52.21" y="252.56" width="1" height="135.43" style="fill:#263238;"></rect><rect x="55.09" y="252.56" width="1" height="135.43" style="fill:#263238;"></rect><rect x="51.53" y="251.89" width="4.99" height="1.34" style="fill:#263238;"></rect><path d="M56.3,253.06h-4.46l-2.91-9.79,.96-.29,2.7,9.08h2.91c.4-1.77,2.03-9.07,2.37-11.1l.99,.17c-.39,2.33-2.39,11.17-2.47,11.55l-.09,.39Z" style="fill:#263238;"></path></g><path d="M260.37,196.27h-3.76l-2.34-9.45,.97-.24,2.15,8.69h2.15c.33-1.76,1.62-8.7,1.89-10.64l.99,.14c-.31,2.24-1.91,10.73-1.98,11.1l-.08,.41Z" style="fill:#263238;"></path><path d="M283.89,185.07h-3.75l-2.34-9.45,.97-.24,2.15,8.69h2.15c.36-1.84,1.85-9.46,2.13-11.41l.99,.14c-.31,2.24-2.14,11.48-2.22,11.87l-.08,.4Z" style="fill:#263238;"></path><path d="M300.78,174.64h-3.74l-2.34-9,.97-.25,2.15,8.25h2.16c.4-1.87,2.07-9.77,2.34-11.63l.99,.15c-.31,2.14-2.35,11.68-2.44,12.09l-.08,.4Z" style="fill:#263238;"></path><path d="M312.5,164.89h-3.26l-1.96-7.52,.97-.25,1.76,6.77h1.63c.28-1.8,1.37-8.8,1.6-10.34l.99,.15c-.26,1.78-1.67,10.77-1.67,10.77l-.07,.42Z" style="fill:#263238;"></path><path d="M321.06,156.57h-2.74l-1.52-6.93,.98-.21,1.35,6.15h1.04c.21-1.97,1.06-9.83,1.24-11.24l.99,.12c-.2,1.6-1.28,11.57-1.29,11.67l-.05,.45Z" style="fill:#263238;"></path><rect x="255.92" y="195.34" width="5.1" height="1.31" style="fill:#263238;"></rect><rect x="279.32" y="184.04" width="5.1" height="1.31" style="fill:#263238;"></rect><rect x="296.44" y="173.77" width="5.1" height="1.31" style="fill:#263238;"></rect><rect x="308.91" y="163.98" width="3.88" height="1.31" style="fill:#263238;"></rect><rect x="317.65" y="155.69" width="3.88" height="1.31" style="fill:#263238;"></rect><g><g><rect x="327.21" y="145.77" width="1" height="190.35" style="fill:#263238;"></rect><rect x="329.21" y="145.77" width="1" height="190.35" style="fill:#263238;"></rect></g><path d="M330.21,145.92h-2.75l-1.77-8.06,.98-.21,1.6,7.27h1.03c.2-2.38,1.07-12.88,1.25-14.35l.99,.12c-.2,1.6-1.27,14.63-1.29,14.77l-.04,.46Z" style="fill:#263238;"></path><rect x="326.76" y="145.12" width="3.88" height="1.31" style="fill:#263238;"></rect></g><g><g><rect x="338.78" y="132.71" width="1" height="203.42" style="fill:#263238;"></rect><rect x="340.78" y="132.71" width="1" height="203.42" style="fill:#263238;"></rect></g><path d="M341.8,132.82h-2.75l-3.34-11.8,.96-.27,3.13,11.08h1.02c.1-3.48,.68-23.38,.87-24.99l.99,.12c-.2,1.69-.87,25.16-.88,25.39v.49Z" style="fill:#263238;"></path><rect x="338.32" y="132.01" width="3.88" height="1.4" style="fill:#263238;"></rect></g><rect x="326.66" y="105.1" width="9.54" height="6.98" style="fill:#7951C1;"></rect><rect x="326.66" y="105.1" width="9.54" height="6.98" style="opacity:.3;"></rect><rect x="343.4" y="84.08" width="1.58" height="9.77" style="fill:#263238;"></rect></g><g><rect x="408.87" y="92.69" width="9.54" height="11.94" transform="translate(827.27 197.32) rotate(180)" style="fill:#263238;"></rect><path d="M739.01,244.56c-33.53-3.67-66.93-8.74-99.93-15.75-24.37-5.18-48.54-11.41-72.26-19.05-16.1-5.19-32-11.04-47.56-17.68-5.18-2.21-10.32-4.52-15.44-6.88-11.08-5.12-22.19-10.24-32.8-16.28-7.46-4.25-14.69-8.98-21.25-14.54-5.21-4.41-9.56-9.56-13.44-15.16-6.72-9.7-12.68-20.46-16.76-31.56-.46-1.25-.93-2.53-1.16-3.84-.17-.95-1.62-.55-1.45,.4,.65,3.6,2.41,7.14,3.9,10.44,2.56,5.68,5.45,11.22,8.61,16.59,3.42,5.79,7.18,11.43,11.54,16.55,4.8,5.64,10.62,10.3,16.68,14.52,13.09,9.13,27.62,15.9,42.04,22.62,4.69,2.18,9.39,4.34,14.12,6.42,14.68,6.44,29.65,12.19,44.84,17.3,22.79,7.68,46.02,13.99,69.47,19.29,31.91,7.21,64.24,12.52,96.71,16.47,4.71,.57,9.42,1.11,14.13,1.63,.96,.1,.95-1.4,0-1.5h0Z" style="fill:#263238;"></path><rect x="534.14" y="208.79" width="1" height="141.97" style="fill:#263238;"></rect><rect x="531.25" y="208.79" width="1" height="141.97" style="fill:#263238;"></rect><rect x="502.36" y="195.85" width="1" height="145.67" style="fill:#263238;"></rect><rect x="499.47" y="195.85" width="1" height="145.67" style="fill:#263238;"></rect><rect x="479.12" y="183.87" width="1" height="159.12" style="fill:#263238;"></rect><rect x="476.24" y="183.87" width="1" height="159.12" style="fill:#263238;"></rect><rect x="462" y="173.6" width="1" height="169.4" style="fill:#263238;"></rect><rect x="459.11" y="173.6" width="1" height="169.4" style="fill:#263238;"></rect><g><rect x="449.53" y="163.81" width="1" height="179.18" style="fill:#263238;"></rect><rect x="447.53" y="163.81" width="1" height="179.18" style="fill:#263238;"></rect></g><g><rect x="440.99" y="155.62" width="1" height="185.39" style="fill:#263238;"></rect><rect x="438.99" y="155.62" width="1" height="185.39" style="fill:#263238;"></rect></g><rect x="530.82" y="208.12" width="4.99" height="1.34" transform="translate(1066.64 417.57) rotate(180)" style="fill:#263238;"></rect><path d="M535.5,209.29h-4.46l-.09-.39c-.08-.38-2.08-9.22-2.47-11.55l.99-.17c.34,2.03,1.97,9.33,2.37,11.1h2.91l2.7-9.08,.96,.29-2.91,9.79Z" style="fill:#263238;"></path><g><rect x="569.83" y="220.98" width="1" height="135.43" style="fill:#263238;"></rect><rect x="566.94" y="220.98" width="1" height="135.43" style="fill:#263238;"></rect><rect x="566.51" y="220.31" width="4.99" height="1.34" transform="translate(1138.02 441.95) rotate(180)" style="fill:#263238;"></rect><path d="M571.19,221.48h-4.46l-.09-.39c-.08-.38-2.08-9.22-2.47-11.55l.99-.17c.34,2.03,1.97,9.33,2.37,11.1h2.91l2.7-9.08,.96,.29-2.91,9.79Z" style="fill:#263238;"></path></g><g><rect x="600.3" y="229.64" width="1" height="135.43" style="fill:#263238;"></rect><rect x="597.41" y="229.64" width="1" height="135.43" style="fill:#263238;"></rect><rect x="596.98" y="228.97" width="4.99" height="1.34" transform="translate(1198.96 459.28) rotate(180)" style="fill:#263238;"></rect><path d="M601.66,230.14h-4.46l-.09-.39c-.08-.38-2.08-9.22-2.47-11.55l.99-.17c.34,2.03,1.97,9.33,2.37,11.1h2.91l2.7-9.08,.96,.29-2.91,9.79Z" style="fill:#263238;"></path></g><g><rect x="652.2" y="241.16" width="1" height="135.43" style="fill:#263238;"></rect><rect x="649.31" y="241.16" width="1" height="135.43" style="fill:#263238;"></rect><rect x="648.89" y="240.49" width="4.99" height="1.34" transform="translate(1302.77 482.32) rotate(180)" style="fill:#263238;"></rect><path d="M653.56,241.66h-4.46l-.09-.39c-.08-.38-2.08-9.22-2.47-11.55l.99-.17c.34,2.03,1.97,9.33,2.37,11.1h2.91l2.7-9.08,.96,.29-2.91,9.79Z" style="fill:#263238;"></path></g><g><rect x="706.74" y="252.08" width="1" height="135.43" style="fill:#263238;"></rect><rect x="703.85" y="252.08" width="1" height="135.43" style="fill:#263238;"></rect><rect x="703.42" y="251.41" width="4.99" height="1.34" transform="translate(1411.84 504.16) rotate(180)" style="fill:#263238;"></rect><path d="M708.1,252.58h-4.46l-.09-.39c-.08-.38-2.08-9.22-2.47-11.55l.99-.17c.34,2.03,1.97,9.33,2.37,11.1h2.91l2.7-9.08,.96,.29-2.91,9.79Z" style="fill:#263238;"></path></g><path d="M503.33,195.78h-3.76l-.08-.41c-.07-.36-1.66-8.86-1.98-11.1l.99-.14c.27,1.94,1.57,8.88,1.89,10.64h2.15l2.15-8.69,.97,.24-2.34,9.45Z" style="fill:#263238;"></path><path d="M479.81,184.59h-3.75l-.08-.4c-.08-.39-1.9-9.63-2.22-11.87l.99-.14c.27,1.95,1.76,9.57,2.13,11.41h2.15l2.15-8.69,.97,.24-2.34,9.45Z" style="fill:#263238;"></path><path d="M462.91,174.15h-3.74l-.08-.4c-.09-.41-2.12-9.95-2.44-12.09l.99-.15c.27,1.86,1.95,9.76,2.34,11.63h2.16l2.15-8.25,.97,.25-2.34,9Z" style="fill:#263238;"></path><path d="M450.71,164.4h-3.26l-.07-.42s-1.41-9-1.67-10.77l.99-.15c.23,1.54,1.32,8.54,1.6,10.34h1.63l1.76-6.77,.97,.25-1.96,7.52Z" style="fill:#263238;"></path><path d="M441.63,156.08h-2.74l-.05-.45c-.01-.1-1.09-10.07-1.29-11.67l.99-.12c.18,1.41,1.03,9.27,1.24,11.24h1.04l1.35-6.15,.98,.21-1.52,6.93Z" style="fill:#263238;"></path><rect x="498.93" y="194.86" width="5.1" height="1.31" transform="translate(1002.95 391.03) rotate(180)" style="fill:#263238;"></rect><rect x="475.52" y="183.55" width="5.1" height="1.31" transform="translate(956.15 368.42) rotate(180)" style="fill:#263238;"></rect><rect x="458.4" y="173.28" width="5.1" height="1.31" transform="translate(921.91 347.87) rotate(180)" style="fill:#263238;"></rect><rect x="447.15" y="163.5" width="3.88" height="1.31" transform="translate(898.19 328.31) rotate(180)" style="fill:#263238;"></rect><rect x="438.42" y="155.2" width="3.88" height="1.31" transform="translate(880.71 311.72) rotate(180)" style="fill:#263238;"></rect><g><g><rect x="431.73" y="145.29" width="1" height="190.35" style="fill:#263238;"></rect><rect x="429.73" y="145.29" width="1" height="190.35" style="fill:#263238;"></rect></g><path d="M432.49,145.43h-2.75l-.04-.46c-.01-.13-1.09-13.17-1.29-14.77l.99-.12c.18,1.46,1.05,11.97,1.25,14.35h1.03l1.6-7.27,.98,.21-1.77,8.06Z" style="fill:#263238;"></path><rect x="429.31" y="144.63" width="3.88" height="1.31" transform="translate(862.5 290.58) rotate(180)" style="fill:#263238;"></rect></g><g><g><rect x="420.17" y="132.22" width="1" height="203.42" style="fill:#263238;"></rect><rect x="418.17" y="132.22" width="1" height="203.42" style="fill:#263238;"></rect></g><path d="M420.9,132.34h-2.75v-.49c-.02-.24-.7-23.7-.89-25.39l.99-.12c.19,1.62,.77,21.51,.87,24.99h1.03l3.13-11.07,.96,.27-3.34,11.8Z" style="fill:#263238;"></path><rect x="417.75" y="131.52" width="3.88" height="1.4" transform="translate(839.37 264.44) rotate(180)" style="fill:#263238;"></rect></g><rect x="414.97" y="83.6" width="1.58" height="9.77" transform="translate(831.51 176.96) rotate(180)" style="fill:#263238;"></rect></g><rect x="355.11" y="100.22" width="47.96" height="4.9" style="fill:#7951C1;"></rect><rect x="355.11" y="100.22" width="47.96" height="4.9" style="opacity:.3;"></rect><rect x="359.95" y="87.52" width="1.1" height="12.7" style="fill:#7951C1;"></rect></g><g><g><path d="M354.08,330.8S13.51,344.17,12.51,344.14v5.95l341.57-17.99v-1.3Z" style="fill:#263238;"></path><polygon points="13.18 372.69 354.08 333.6 354.08 340.44 13.18 427.49 13.18 372.69" style="fill:#263238;"></polygon><rect x="14.22" y="346.9" width="12.91" height="32.02" style="fill:#263238;"></rect><rect x="44.94" y="345.03" width="11.68" height="32.02" style="fill:#263238;"></rect><rect x="72.76" y="344.08" width="11.68" height="32.02" style="fill:#263238;"></rect><rect x="100.59" y="343.13" width="11.68" height="32.02" style="fill:#263238;"></rect><rect x="128.41" y="342.19" width="11.68" height="32.02" style="fill:#263238;"></rect><rect x="156.23" y="341.24" width="8.83" height="32.02" style="fill:#263238;"></rect><rect x="181.43" y="340.3" width="9.37" height="32.02" style="fill:#263238;"></rect><rect x="205.47" y="338.02" width="9.37" height="32.02" style="fill:#263238;"></rect><rect x="229.51" y="335.75" width="9.37" height="32.02" style="fill:#263238;"></rect><rect x="253.54" y="335.75" width="6.43" height="25.3" style="fill:#263238;"></rect><rect x="273.25" y="334.18" width="6.43" height="22.12" style="fill:#263238;"></rect><rect x="290.83" y="333.76" width="6.43" height="17.49" style="fill:#263238;"></rect><rect x="308.39" y="333.11" width="6.43" height="17.49" style="fill:#263238;"></rect><rect x="325.95" y="332.75" width="6.43" height="11.97" style="fill:#263238;"></rect><rect x="343.51" y="331.83" width="6.43" height="7.47" style="fill:#263238;"></rect></g><g><path d="M399.11,330.8s332.7,13.37,333.67,13.34v5.95l-333.68-17.99v-1.3Z" style="fill:#263238;"></path><polygon points="732.13 372.69 399.11 333.6 399.11 340.44 732.13 427.49 732.13 372.69" style="fill:#263238;"></polygon><rect x="718.5" y="346.9" width="12.61" height="32.02" transform="translate(1449.6 725.83) rotate(180)" style="fill:#263238;"></rect><rect x="689.69" y="345.03" width="11.41" height="32.02" transform="translate(1390.79 722.07) rotate(180)" style="fill:#263238;"></rect><rect x="662.51" y="344.08" width="11.41" height="32.02" transform="translate(1336.43 720.18) rotate(180)" style="fill:#263238;"></rect><rect x="635.33" y="343.13" width="11.41" height="32.02" transform="translate(1282.07 718.29) rotate(180)" style="fill:#263238;"></rect><rect x="608.16" y="342.19" width="11.41" height="32.02" transform="translate(1227.72 716.39) rotate(180)" style="fill:#263238;"></rect><rect x="583.76" y="341.24" width="8.62" height="32.02" transform="translate(1176.15 714.5) rotate(180)" style="fill:#263238;"></rect><rect x="558.61" y="340.3" width="9.15" height="32.02" transform="translate(1126.37 712.61) rotate(180)" style="fill:#263238;"></rect><rect x="535.13" y="338.02" width="9.15" height="32.02" transform="translate(1079.41 708.07) rotate(180)" style="fill:#263238;"></rect><rect x="511.65" y="335.75" width="9.15" height="32.02" transform="translate(1032.45 703.52) rotate(180)" style="fill:#263238;"></rect><rect x="491.04" y="335.75" width="6.29" height="25.3" transform="translate(988.36 696.81) rotate(180)" style="fill:#263238;"></rect><rect x="469.89" y="334.18" width="6.29" height="22.12" transform="translate(946.07 690.49) rotate(180)" style="fill:#263238;"></rect><rect x="454.61" y="333.76" width="6.29" height="17.49" transform="translate(915.5 685) rotate(180)" style="fill:#263238;"></rect><rect x="438.71" y="333.25" width="6.29" height="14.1" transform="translate(883.7 680.6) rotate(180)" style="fill:#263238;"></rect><rect x="420.74" y="332.09" width="6.29" height="11.47" transform="translate(847.76 675.64) rotate(180)" style="fill:#263238;"></rect><rect x="405.72" y="331.61" width="6.29" height="9.28" transform="translate(817.73 672.49) rotate(180)" style="fill:#263238;"></rect></g></g><g><path d="M13.13,427.49c1.88,0,341.29-87.72,341.29-87.72h50.09l327.62,87.72,.65,39.72H13.18l-.04-39.72Z" style="fill:#263238;"></path><path d="M13.13,427.49c1.88,0,341.29-87.72,341.29-87.72h50.09l327.62,87.72,.65,39.72H13.18l-.04-39.72Z" style="fill:#fff; opacity:.5;"></path><g><polygon points="371.32 364.42 376.34 364.42 375.77 353.81 372.24 353.81 371.32 364.42" style="fill:#fff;"></polygon><polygon points="377.98 395.1 376.96 376.15 370.31 376.15 368.67 395.1 377.98 395.1" style="fill:#fff;"></polygon><polygon points="367.28 411.19 362.14 445.22 382.64 445.22 378.84 411.19 367.28 411.19" style="fill:#fff;"></polygon><polygon points="375.57 350.09 375.02 339.77 373.46 339.77 372.56 350.09 375.57 350.09" style="fill:#fff;"></polygon></g><polyline points="354.08 340.44 13.13 439.68 13.13 443.54 355.72 340.44" style="fill:#fff;"></polyline><polyline points="402.73 340.44 731.95 435.74 732.13 441.73 401.09 340.44" style="fill:#fff;"></polyline></g></g><g id="freepik--Car_2--inject-22"><ellipse cx="309.06" cy="392.8" rx="40.22" ry="5.06" style="opacity:.3;"></ellipse><g><rect x="339.49" y="368.43" width="13.14" height="26.81" rx="5.08" ry="5.08" transform="translate(692.12 763.68) rotate(-180)" style="fill:#263238;"></rect><rect x="265.28" y="368.43" width="13.14" height="26.81" rx="5.08" ry="5.08" style="fill:#263238;"></rect><path d="M350.97,349.8c2.15,.15,2.91-3.07,2.61-4.6-.31-1.53-6.75-1.53-7.67-1.23-.92,.31-2.68,3.65-2.68,3.65,0,0-3.1-5.21-5.45-10.25-2.06-4.42-6.95-4.39-6.95-4.39h-43.54s-4.65-.67-6.95,4.39-5.54,10.64-5.54,10.64c0,0-1.67-3.74-2.59-4.04-.92-.31-7.36-.31-7.67,1.23-.31,1.53,.46,4.76,2.61,4.6,2.15-.15,6.44-.46,6.44-.46l.31,1.23s-5.06,5.68-4.76,8.28c0,0-2.76,1.07-2.76,2.61s-.61,23.17,2.76,26.08c0,0,1.53,.92,1.99,1.07,.42,.14,31.78,.03,37.93,0,6.15,.02,37.51,.13,37.93,0,.46-.15,1.99-1.07,1.99-1.07,3.38-2.92,2.76-24.55,2.76-26.08s-2.76-2.61-2.76-2.61c.31-2.61-4.76-8.28-4.76-8.28l.31-1.23s4.3,.31,6.44,.46Z" style="fill:#7951C1;"></path><path d="M344.55,365.39s-2.11,4.08-5.49,4.44c-3.38,.36-7.18,.03-7.18,.03l.57-6.96,12.11,2.49" style="opacity:.3;"></path><path d="M341.86,357.37c.15,.09,1.4,1.8,2.31,3.05,.61,.84,.93,1.85,.93,2.88h0c0,2.39-1.72,4.44-4.08,4.85-2.17,.38-5.15,.49-8.78-.37,0,0-.23-4.81,.65-5.6,.88-.79,8.97-4.81,8.97-4.81Z" style="fill:#fff;"></path><path d="M275.71,349.84s12.13,3.61,33.24,2.98,32.92-3.17,32.92-3.17c0,0-4.57-11.87-6.79-13.56s-4.19-1.95-7.99-1.85c-3.8,.11-38.83,0-41.78,.32-2.95,.32-4.24,4.24-5.03,5.67-1.46,2.66-4.57,9.6-4.57,9.6Z" style="fill:#263238;"></path><path d="M273.27,365.39s2.11,4.08,5.49,4.44c3.38,.36,7.18,.03,7.18,.03l-.57-6.96-12.11,2.49" style="opacity:.3;"></path><path d="M276.05,357.37c-.15,.09-1.4,1.8-2.31,3.05-.61,.84-.93,1.85-.93,2.88h0c0,2.39,1.72,4.44,4.08,4.85,2.17,.38,5.15,.49,8.78-.37,0,0,.23-4.81-.65-5.6-.88-.79-8.97-4.81-8.97-4.81Z" style="fill:#fff;"></path><path d="M305.5,363.03l-18.22-1.08s1.48,6.34,5.97,7.54c3.28,.88,11.5,.92,15.7,.88,4.2,.04,12.43,0,15.7-.88,4.49-1.2,5.97-7.54,5.97-7.54l-18.22,1.08c-2.3,.14-4.61,.14-6.91,0Z" style="fill:#263238;"></path><path d="M310.43,378c10.93-.03,28.7-2.81,34.36-3.74,1.04-.17,2.01,.55,2.15,1.59,.07,.5,.13,1.1,.17,1.8,.16,2.63-.95,4.13-.95,4.13-6.34,1.35-29.02,1.77-35.73,2.15-.8,.05-1.88,0-1.88,0-6.7-.38-29.39-.8-35.73-2.15,0,0-1.12-1.49-.95-4.13,.15-2.49,.54-3.7,.54-3.7,0,0,23.01,4,36.14,4.04h1.88Z" style="opacity:.3;"></path><path d="M310.83,361.24c0,.46-.92,.83-2.05,.83s-2.05-.37-2.05-.83,.92-.83,2.05-.83,2.05,.37,2.05,.83Z" style="opacity:.3;"></path><path d="M332.22,336.67c-2.65-1.15-40.23-.32-40.23-.32,.43,.29,10.03,13.67,16.03,14.56,6,.88,31.48-2.14,31.34-2.57s-4.48-10.51-7.14-11.66Z" style="fill:#fff; opacity:.2;"></path><path d="M264.57,346.97c-.03-.19,7.25-.41,8.04,0,.78,.41,.98,2.36,.98,2.36,0,0-6.53,.56-6.94,.43-.42-.13-1.65-.43-2.07-2.79Z" style="opacity:.3;"></path><path d="M353.52,346.97c.03-.19-7.25-.41-8.04,0-.78,.41-.98,2.36-.98,2.36,0,0,6.53,.56,6.94,.43,.42-.13,1.65-.43,2.07-2.79Z" style="opacity:.3;"></path><g><rect x="302.03" y="372.01" width="16.06" height="3.9" rx=".87" ry=".87" style="fill:#263238;"></rect><rect x="302.03" y="372.01" width="16.06" height="3.9" rx=".87" ry=".87" style="fill:#fff; opacity:.4;"></rect></g></g></g><g id="freepik--Car_1--inject-22"><ellipse cx="485.15" cy="441.73" rx="62.72" ry="12.03" style="opacity:.3;"></ellipse><g><path d="M413.19,417.39h22.15v29.45c0,2.14-1.73,3.87-3.87,3.87h-14.42c-2.14,0-3.87-1.73-3.87-3.87v-29.45h0Z" style="fill:#263238;"></path><path d="M536.15,417.39h14.42c2.14,0,3.87,1.73,3.87,3.87v29.45h-22.15v-29.45c0-2.14,1.73-3.87,3.87-3.87Z" transform="translate(1086.72 868.09) rotate(180)" style="fill:#263238;"></path><g><path d="M538.48,366.29s1.98-2.4,3.64-3.07c1.65-.66,6.4-.55,8.27,0,1.88,.55,7.5,6.18,6.73,7.94-.77,1.77-3.75,4.41-5.3,4.63-1.54,.22-5.36,0-5.36,0l-9.54-6.95,1.55-2.56Z" style="fill:#7951C1;"></path><path d="M539.71,366.73s1.7-2.06,3.12-2.63c1.42-.57,5.48-.47,7.09,0,1.61,.47,6.43,5.3,5.77,6.81-.66,1.51-3.22,3.78-4.54,3.97-1.32,.19-4.59,0-4.59,0l-8.18-5.96,1.33-2.19Z" style="fill:#fff; opacity:.4;"></path></g><g><path d="M429.15,366.29s-1.98-2.4-3.64-3.07c-1.65-.66-6.4-.55-8.27,0s-7.5,6.18-6.73,7.94c.77,1.77,3.75,4.41,5.3,4.63,1.54,.22,5.36,0,5.36,0l9.54-6.95-1.55-2.56Z" style="fill:#7951C1;"></path><path d="M427.92,366.73s-1.7-2.06-3.12-2.63c-1.42-.57-5.48-.47-7.09,0-1.61,.47-6.43,5.3-5.77,6.81,.66,1.51,3.22,3.78,4.54,3.97,1.32,.19,4.59,0,4.59,0l8.18-5.96-1.33-2.19Z" style="fill:#fff; opacity:.4;"></path></g><path d="M545.5,374.8c-2.04-1.02-6.64-7.66-6.64-7.66l-11.39-20.36c-2.03-3.63-5.77-5.98-9.92-6.22l-33.67-.46h-.14l-33.67,.46c-4.15,.25-7.89,2.59-9.92,6.22l-11.39,20.36s-4.59,6.64-6.64,7.66c-2.04,1.02-8.93,16.59-8.93,16.59v41.15l19.09-.03,51.46,.03h.14l51.46-.03,19.09,.03v-41.15s-6.89-15.57-8.93-16.59Z" style="fill:#7951C1;"></path><path d="M426.96,432.53v-5.22c0-1.63,1.33-2.96,2.96-2.96h14.79c1.63,0,2.96,1.33,2.96,2.96v5.22h-20.71Z" style="opacity:.3;"></path><path d="M483.89,371.02c-13.42,.27-30.15,.27-43.65,.19l-3.64-.03-1.82-.02c-1.82,.15-2.13-1.23-1.11-2.54,1.06-1.49,2.52-2.64,3.92-3.8-1.35,1.2-2.76,2.39-3.76,3.9-.46,.66-.9,1.78,.11,2.09,.51,.15,2.11,.01,2.68,.04l3.64-.03c13.52-.08,30.2-.08,43.64,.19h0Z" style="fill:#263238;"></path><path d="M436.05,371.02c.39,5.85,.78,11.72,1.64,17.51,.32,2.94,1.43,5.62,3.29,7.92,2.13,3.11,5.05,5.26,8.98,4.9h2.2c10.02,.02,20.82,.08,30.81,.24-8.46,.15-17.89,.2-26.41,.23-1.47,0-5.18,.01-6.6,.02-4.05,.39-7.16-1.89-9.34-5.12-1.87-2.32-3.05-5.18-3.3-8.14-.78-5.84-1.05-11.7-1.26-17.57h0Z" style="fill:#263238;"></path><path d="M437.39,430.13c0,1.92-1.56,3.48-3.48,3.48s-3.48-1.56-3.48-3.48,1.56-3.48,3.48-3.48,3.48,1.56,3.48,3.48Z" style="fill:#263238;"></path><path d="M445.35,430.13c0,1.92-1.56,3.48-3.48,3.48s-3.48-1.56-3.48-3.48,1.56-3.48,3.48-3.48,3.48,1.56,3.48,3.48Z" style="fill:#263238;"></path><circle cx="433.91" cy="430.13" r="3.11" style="fill:#fff; opacity:.3;"></circle><circle cx="441.87" cy="430.13" r="3.11" style="fill:#fff; opacity:.3;"></circle><path d="M522.52,347.07c-.36-.12-28.41-.04-36.56,0-8.94-.03-39.71-.11-40.11,0-.47,.14-8.26,17.76-8.26,17.76h92.46s-7.1-17.62-7.53-17.76Z" style="fill:#263238;"></path><path d="M419.92,391.09c.82-.05,2.27,4.34,10.51,4.01,8.44-.34,14.71,.38,17.24-1.69s10.15-10.7,10.15-10.7l-37.9,8.38Z" style="opacity:.3;"></path><path d="M546.75,391.09c-.82-.05-2.27,4.34-10.51,4.01-8.44-.34-14.71,.38-17.24-1.69s-10.15-10.7-10.15-10.7l37.9,8.38Z" style="opacity:.3;"></path><path d="M421.98,379.84s-3.46,3.67-2.99,6.26,.6,6.41,2.39,6.65c1.79,.24,22.7-.36,24.61-1.19s11.95-6.93,11.83-8.84c-.12-1.91-2.03-2.87-2.03-2.87h-33.81Z" style="fill:#fff;"></path><path d="M483.74,371.02c13.42-.27,30.14-.27,43.64-.19l3.64,.03c.56-.03,2.16,.1,2.68-.04,1-.31,.57-1.43,.11-2.09-1-1.51-2.41-2.7-3.76-3.9,1.4,1.16,2.86,2.31,3.92,3.8,1,1.3,.73,2.68-1.11,2.54l-1.82,.02-3.64,.03c-13.52,.07-30.2,.08-43.65-.19h0Z" style="fill:#263238;"></path><path d="M531.58,371.02c-.21,5.87-.48,11.73-1.26,17.57-.26,2.96-1.43,5.81-3.3,8.14-2.18,3.23-5.29,5.51-9.34,5.12-1.41,0-5.15-.01-6.6-.02-8.52-.03-17.93-.08-26.41-.23,9.98-.17,20.8-.22,30.81-.24h2.2c3.93,.35,6.85-1.8,8.98-4.91,1.86-2.3,2.97-4.98,3.29-7.92,.85-5.8,1.25-11.67,1.64-17.51h0Z" style="fill:#263238;"></path><polygon points="534.45 417.39 533.09 417.39 482.97 417.39 482.94 417.39 434.54 417.39 433.18 417.39 420.57 417.39 420.57 420.67 433.18 420.67 433.86 419.03 483.75 419.03 483.89 419.03 533.77 419.03 534.45 420.67 547.06 420.67 547.06 417.39 534.45 417.39" style="opacity:.3;"></polygon><g><path d="M449.97,364.83v-2.74c0-3.06,2.48-5.54,5.54-5.54h6.54c3.06,0,5.54,2.48,5.54,5.54v2.74h-17.62Z" style="opacity:.3;"></path><g style="opacity:.3;"><path d="M491.88,349.95s-.56,3.76-1.95,4.18c-1.39,.42-16.44,0-16.44,0l-2.09-4.18h20.48Z"></path><rect x="478.92" y="347.01" width="6.55" height="3.64" transform="translate(964.39 697.65) rotate(180)"></rect></g><path d="M517.66,364.83v-2.74c0-3.06-2.48-5.54-5.54-5.54h-6.54c-3.06,0-5.54,2.48-5.54,5.54v2.74h17.62Z" style="opacity:.3;"></path></g><path d="M544.69,379.29s3.46,3.67,2.99,6.26c-.48,2.58-.6,6.41-2.39,6.65-1.79,.24-22.7-.36-24.61-1.19s-11.95-6.93-11.83-8.84c.12-1.91,2.03-2.87,2.03-2.87h33.81Z" style="fill:#fff;"></path><circle cx="484.22" cy="381.07" r="3.83" style="opacity:.3;"></circle><path d="M413.75,405.82c44.83-.31,95.13-.31,139.96,0-44.83,.31-95.13,.31-139.96,0h0Z" style="fill:#263238;"></path><path d="M414.12,366.96c.08-.09,8.15,7.05,8.15,7.05l2.27-1.66-8.53-7.18-1.89,1.78Z" style="fill:#fff; opacity:.4;"></path><polygon points="416.76 364.61 425.36 371.64 426.13 370.68 417.71 364.1 416.76 364.61" style="fill:#fff; opacity:.4;"></polygon><path d="M553.34,366.77c-.08-.09-8.15,7.05-8.15,7.05l-2.27-1.66,8.52-7.13c.53,.38,1.2,1.03,1.9,1.73Z" style="fill:#fff; opacity:.4;"></path><path d="M550.7,364.5l-8.6,6.96-.77-.96,8.29-6.48c.37,.07,.73,.26,1.08,.47Z" style="fill:#fff; opacity:.4;"></path><path d="M476.74,348.26s12.69,11.71,16.46,14.29c.47,.32,1.02,.48,1.59,.48h30.15c1.21,0,2.06-1.2,1.64-2.34-1.57-4.25-4.67-12.32-5.72-12.44-2.26-.24-44.12,0-44.12,0Z" style="fill:#fff; opacity:.3;"></path><path d="M449.97,401.6s18.97,2.3,34.69,1.88c18.63-.5,35.76-1.54,33.62-1.65-.67-.03-68.31-.23-68.31-.23Z" style="opacity:.3;"></path><path d="M446.95,370.93s18.97,2.3,34.69,1.88c18.63-.5,35.76-1.54,33.62-1.65-.67-.03-68.31-.23-68.31-.23Z" style="opacity:.3;"></path><g><rect x="467.92" y="407.24" width="32.59" height="7.91" rx="1.29" ry="1.29" style="fill:#263238;"></rect><rect x="467.92" y="407.24" width="32.59" height="7.91" rx="1.29" ry="1.29" style="fill:#fff; opacity:.4;"></rect></g><path d="M464.6,341.65h-1.95c-.07,0-.12-.06-.12-.12s.06-.12,.12-.12h1.95c.07,0,.12,.06,.12,.12s-.06,.12-.12,.12Z" style="fill:#fff;"></path><path d="M480.76,341.65h-14.42c-.07,0-.12-.06-.12-.12s.06-.12,.12-.12h14.42c.07,0,.12,.06,.12,.12s-.06,.12-.12,.12Z" style="fill:#fff;"></path><path d="M485.15,369.46h-14.42c-.07,0-.12-.06-.12-.12s.06-.12,.12-.12h14.42c.07,0,.12,.06,.12,.12s-.06,.12-.12,.12Z" style="fill:#fff;"></path></g></g></svg>
